<?xml version="1.0" encoding="utf-8"?>
<!-- Generator: Adobe Illustrator 26.2.1, SVG Export Plug-In . SVG Version: 6.00 Build 0)  -->
<svg version="1.1" id="Layer_1" xmlns="http://www.w3.org/2000/svg" xmlns:xlink="http://www.w3.org/1999/xlink" x="0px" y="0px"
	 width="1000px" height="1000px" viewBox="0 0 1000 1000" enable-background="new 0 0 1000 1000" xml:space="preserve">
<ellipse fill="#009B6C" cx="287.2" cy="653" rx="178.9" ry="202"/>
<g>
	<path fill="#009B6C" d="M513.6,359.3c-7.2,99.1-114.9,172-240.4,162.9C147.6,513,51.6,425.3,58.8,326.2c2.8-39,21.3-74,50.2-101.5
		c3.3-3.1,3.8-8.2,1.1-11.9c-12.9-17.9-19.8-40.6-18-64.6c3.9-53.1,49.4-93.3,100.7-89.1c50.8,4.2,88.8,50,85,102.7
		c0,0.3,0,0.5-0.1,0.8c7.1,0,14.3,0.2,21.6,0.8c7.3,0.5,14.5,1.3,21.5,2.4c0-0.3,0-0.5,0-0.8c3.8-52.7,48.1-92.6,99-89.3
		c51.3,3.3,90.5,49.7,86.7,102.7c-1.7,24.1-11.9,45.5-27.2,61.3c-3.2,3.3-3.4,8.4-0.6,12C503.3,283,516.5,320.3,513.6,359.3z"/>
	<path fill="#070707" d="M359.6,445.4c-24.6,12.2-52.9,19.9-82.2,17.8c-29.3-2.1-56.1-13.8-78.7-29.5
		c-46.1-32.1-74.2-80.8-67.8-98.2c0.2-0.7,0.5-1.3,0.9-1.8c9.1-15.2,50,10.5,153.6,18.1c103.7,7.6,147.9-11.8,154.8,4.6
		c0.2,0.5,0.4,1.1,0.5,1.7C444.9,376.1,410.1,420.3,359.6,445.4z"/>
	
		<ellipse transform="matrix(7.248525e-02 -0.9974 0.9974 7.248525e-02 15.3665 336.4217)" fill="#FFFFFF" cx="188.6" cy="159.9" rx="59.1" ry="57.2"/>
	
		<ellipse transform="matrix(7.248525e-02 -0.9974 0.9974 7.248525e-02 204.0663 571.4118)" fill="#FFFFFF" cx="409.3" cy="176" rx="59.1" ry="57.2"/>
	
		<ellipse transform="matrix(7.248525e-02 -0.9974 0.9974 7.248525e-02 -43.9687 538.9631)" fill="#070707" cx="267.8" cy="293.1" rx="17.8" ry="12.5"/>
	
		<ellipse transform="matrix(7.248525e-02 -0.9974 0.9974 7.248525e-02 -6.5091 585.6119)" fill="#070707" cx="311.6" cy="296.3" rx="17.8" ry="12.5"/>
	<path fill="#E24D4D" d="M359.6,445.4c-24.6,12.2-52.9,19.9-82.2,17.8c-29.3-2.1-56.1-13.8-78.7-29.5c15-10.3,46.3-15.9,81.8-13.3
		C316.1,423,346.3,433.1,359.6,445.4z"/>
	<path fill="#FFFFFF" d="M440.7,358.1c-19.4,21.2-83.2,33.3-157.7,27.9c-74.6-5.4-136-26.6-152.1-50.5c0.2-0.7,0.5-1.3,0.9-1.8
		c9.1-15.2,50,10.5,153.6,18.1c103.7,7.6,147.9-11.8,154.8,4.6C440.4,357,440.6,357.5,440.7,358.1z"/>
	
		<ellipse transform="matrix(7.248525e-02 -0.9974 0.9974 7.248525e-02 15.3665 336.4217)" fill="#070707" cx="188.6" cy="159.9" rx="26.7" ry="25.8"/>
	
		<ellipse transform="matrix(7.248525e-02 -0.9974 0.9974 7.248525e-02 204.0663 571.4118)" fill="#070707" cx="409.3" cy="176" rx="26.7" ry="25.8"/>
</g>
<ellipse transform="matrix(0.4465 -0.8948 0.8948 0.4465 -266.4471 778.9159)" fill="#009B6C" cx="496.4" cy="604.8" rx="45.2" ry="161.8"/>
<ellipse fill="#009B6C" cx="222.2" cy="911.9" rx="52.5" ry="133.7"/>
<ellipse fill="#009B6C" cx="339.7" cy="911.9" rx="52.5" ry="133.7"/>
<ellipse opacity="0.5" fill="#FFFFFF" cx="318.7" cy="671" rx="122.1" ry="134.3"/>
<ellipse transform="matrix(0.8044 -0.5941 0.5941 0.8044 -340.3331 258.4106)" fill="#009B6C" cx="222.2" cy="646" rx="47.2" ry="150.4"/>
<g>
	<path fill="#BBBDBF" d="M458.9,467.6l-48.2-95.9c0,0,4.5-14.8,45.9-5.1c41.5,9.7,104.1,10.4,143.4,17.2
		c45.4,7.9,88.5,25.2,88.5,25.2l-87.3,86.6L458.9,467.6z"/>
</g>
<g>
	<path fill="#52D1A3" stroke="#009B6C" stroke-width="9.5702" stroke-miterlimit="10" d="M738.4,304
		C683.8,366.1,630,429.2,593,499.9c-34.1-17.9-68.1-35.7-102.5-53.7c33.7-72.1,54.6-147.8,86.7-225.2
		C635.1,242.2,687.7,270.1,738.4,304z"/>
	<path fill="#009B6C" d="M620.9,324.8c30.5,15.7,41.5,46.6,25.9,67.3c-15.7,20.9-46.7,28-71,15.5c-24.1-12.6-37.2-42-28.4-66
		C556.3,317.7,590.3,309.3,620.9,324.8z"/>
	<path fill="#009B6C" d="M490.5,446.2c9.1,4.8,18.3,9.5,27.3,14.3c7.7-15.1,1.1-33.9-14.9-42.1C499,427.8,494.9,437,490.5,446.2z"/>
	<g>
		<g>
			<path fill="#8BC543" d="M589.1,350.8c-4-1.6-7.4,0.4-10.1,6c-2.8,5.7-2.4,9.4,1.1,11.1c2.1,1.1,4.1,0.9,6-0.4
				c1.9-1.3,4.9-4.4,9-9.2c4.1-4.8,8.4-7.8,12.8-8.8c4.4-1,9.1-0.3,14,2.3c5.6,2.9,8.8,7.3,9.3,12.8c0.5,5.5-0.9,10.8-4.1,15.8
				c-7.8,12.2-17.6,16.2-29.4,12.4c1.6-3.6,3.3-7.2,4.9-10.9c6.3,2.3,11.4,0.1,15.4-6.4c3.8-6.1,3.1-10.6-2.1-13.3
				c-2.3-1.2-4.4-1.3-6.4-0.4c-2,0.9-5.2,3.9-9.6,8.8c-4.4,5-8.5,8-12.4,9.2c-3.9,1.2-7.8,0.8-11.6-1.1c-4.1-2.1-6.9-5.5-8.3-10.2
				c-1.4-4.7-0.7-10.3,2.2-16.6c5.7-12.6,14-16.7,24.5-12.3C592.4,343.4,590.8,347.1,589.1,350.8z"/>
		</g>
		<path fill="#8BC543" d="M573.5,347c-1.6,3.4-3.2,6.9-4.7,10.3c-3.7-1.8-7.3-3.6-11.1-5.4c1.5-3.5,3-6.9,4.5-10.4
			C565.9,343.4,569.7,345.2,573.5,347z"/>
		<path fill="#8BC543" d="M638.9,380.6c-2.1,3.2-4.3,6.3-6.4,9.5c-3.6-1.9-7.1-3.8-10.6-5.6c2-3.2,4-6.4,6.1-9.7
			C631.6,376.7,635.2,378.6,638.9,380.6z"/>
	</g>
	<path fill="#009B6C" d="M591.4,499.1c4.8-9,9.9-17.9,15.1-26.7c-15.4-8.1-34.4-2.5-42.3,12.4C573.2,489.6,582.3,494.3,591.4,499.1z
		"/>
	<path fill="#009B6C" d="M736,302.3c-13.5-9-27.1-17.5-41-25.6c-10.4,14.9-1.3,36.4,20.3,49.6C722.2,318.4,729.2,310.4,736,302.3z"
		/>
	<path fill="#009B6C" d="M577.2,221c-4,9.9-7.9,19.8-11.7,29.6c23.8,9.3,48.3,4.8,56.7-11.3C607.6,232.7,592.6,226.6,577.2,221z"/>
	<path fill="#009B6C" d="M566.5,425.5c5.4,2.8,7.5,9.2,4.8,14.3c-2.7,5.1-9.2,7-14.4,4.3c-5.2-2.7-7.4-9.1-4.8-14.3
		C554.6,424.7,561.1,422.7,566.5,425.5z"/>
	<path fill="#009B6C" d="M642.5,287.6c7.5,3.8,10.8,11.2,7.6,16.3c-3.3,5.1-11.6,6.2-18.7,2.6c-7.1-3.6-10.6-10.8-7.8-16.1
		C626.5,285.1,635,283.8,642.5,287.6z"/>
</g>
<g>
	<path fill="#52D1A3" stroke="#009B6C" stroke-width="9.5702" stroke-miterlimit="10" d="M720,260.1
		c-45.2,69.3-89.3,139.5-115.9,214.8c-36.3-12.8-72.5-25.6-109.1-38.5c23-76.2,32.9-154.1,53.6-235.3
		C608.9,213.8,665,233.9,720,260.1z"/>
	<path fill="#009B6C" d="M495,436.4c9.7,3.4,19.4,6.8,29.1,10.2c5.5-16-3.8-33.7-20.7-39.5C500.8,416.9,498.1,426.7,495,436.4z"/>
	<g>
		<path fill="#009B6C" d="M611.7,303.2c18,5.4,27,28.3,20.2,51c-6.8,22.8-27,36.9-45,31.5c-7.1-2.1-12.8-7-16.7-13.4
			c-0.4-0.7-1.4-1-2.2-0.7c-3.8,1.6-8.3,2-12.7,0.7c-9.6-2.9-15.2-12.9-12.3-22.2c2.9-9.2,12.9-14.3,22.4-11.4c0,0,0.1,0,0.1,0
			c0.3-1.3,0.6-2.6,1-3.9c0.4-1.3,0.8-2.6,1.3-3.9c0,0-0.1,0-0.1,0c-9.6-2.9-15.1-12.7-12.4-21.9c2.7-9.3,12.9-14.7,22.5-11.8
			c4.4,1.3,7.9,4.1,10.2,7.5c0.5,0.7,1.4,1,2.2,0.6C597.3,301.9,604.7,301,611.7,303.2z"/>
		<path fill="#070707" d="M621.3,335.1c1.2,5,1.5,10.6-0.1,15.9c-1.6,5.3-4.9,9.8-8.7,13.3c-7.8,7.2-17.9,10.4-20.9,8.5
			c-0.1-0.1-0.2-0.1-0.3-0.2c-2.4-2.3,4-8.8,9.7-27.6c5.7-18.8,3.9-27.8,7.2-28.4c0.1,0,0.2,0,0.3,0
			C612,316.5,618.8,324.8,621.3,335.1z"/>
		
			<ellipse transform="matrix(0.2878 -0.9577 0.9577 0.2878 60.0794 790.6562)" fill="#FFFFFF" cx="561.6" cy="354.9" rx="10.8" ry="11.2"/>
		
			<ellipse transform="matrix(0.2878 -0.9577 0.9577 0.2878 107.0031 773.6578)" fill="#FFFFFF" cx="573.7" cy="314.9" rx="10.8" ry="11.2"/>
		
			<ellipse transform="matrix(0.2878 -0.9577 0.9577 0.2878 88.646 810.7926)" fill="#070707" cx="589.4" cy="345.8" rx="2.4" ry="3.4"/>
		
			<ellipse transform="matrix(0.2878 -0.9577 0.9577 0.2878 97.961 807.4182)" fill="#070707" cx="591.8" cy="337.8" rx="2.4" ry="3.4"/>
		<path fill="#E24D4D" d="M621.3,335.1c1.2,5,1.5,10.6-0.1,15.9c-1.6,5.3-4.9,9.8-8.7,13.3c-1.3-3.2-1-9.2,0.9-15.6
			C615.4,342.2,618.5,337.1,621.3,335.1z"/>
		<path fill="#FFFFFF" d="M608.5,316.6c3.1,4.4,2.7,16.7-1.3,30.2c-4.1,13.5-10.5,24-15.6,26c-0.1-0.1-0.2-0.1-0.3-0.2
			c-2.4-2.3,4-8.8,9.7-27.6c5.7-18.8,3.9-27.8,7.2-28.4C608.3,316.6,608.4,316.6,608.5,316.6z"/>
		
			<ellipse transform="matrix(0.2878 -0.9577 0.9577 0.2878 60.0794 790.6562)" fill="#070707" cx="561.6" cy="354.9" rx="4.9" ry="5"/>
		
			<ellipse transform="matrix(0.2878 -0.9577 0.9577 0.2878 107.0031 773.6578)" fill="#070707" cx="573.7" cy="314.9" rx="4.9" ry="5"/>
	</g>
	<path fill="#009B6C" d="M602.4,474.2c3.5-9.6,7.2-19.1,11.1-28.6c-16.4-5.8-34.4,2.4-40,18.4C583.1,467.4,592.8,470.8,602.4,474.2z
		"/>
	<path fill="#009B6C" d="M717.4,258.8c-14.7-6.9-29.4-13.4-44.2-19.4c-8.2,16.2,4,36.2,27.2,46.2
		C706.1,276.7,711.7,267.7,717.4,258.8z"/>
	<path fill="#009B6C" d="M548.6,201.1c-2.6,10.4-5,20.7-7.3,31c24.8,5.8,48.5-2.1,54.5-19.3C580.3,208.3,564.5,204.4,548.6,201.1z"
		/>
	<path fill="#009B6C" d="M567.3,405c5.8,2,8.8,8,6.8,13.5c-2,5.4-8.1,8.3-13.7,6.3c-5.6-1.9-8.6-8-6.8-13.5
		C555.4,405.9,561.5,403.1,567.3,405z"/>
	<path fill="#009B6C" d="M622.7,257.6c8,2.7,12.3,9.6,9.8,15.1c-2.5,5.5-10.6,7.8-18.1,5.3c-7.5-2.5-12-9.1-10-14.8
		C606.5,257.5,614.7,254.9,622.7,257.6z"/>
</g>
<g>
	<g>
		<g>
			<path fill="#E8AF2E" d="M563.6,377.2c-17.8,34-59.9,47.1-93.9,29.3c-34-17.8-47.1-59.9-29.3-93.9c17.8-34,59.9-47.1,93.9-29.3
				C568.3,301.2,581.4,343.2,563.6,377.2z"/>
			<path fill="#F9CA35" d="M552.4,371.4c-14.6,27.9-49,38.6-76.9,24c-27.9-14.6-38.6-49-24-76.9c14.6-27.9,49-38.6,76.9-24
				C556.3,309.1,567,343.5,552.4,371.4z"/>
		</g>
		<g>
			<g>
				<path fill="#FFFFFF" d="M452.1,319.9c1.1-5.4,5-13,7.2-14.5c2.1-1.4,10.7-2.2,16.1-1.1c-5.4-1.1-12.8-4.7-14.5-7.1
					c-1.7-2.6-2.2-10.7-1.1-16.1c-1.1,5.5-4.7,12.8-7.5,14.7c-2.9,1.9-10.5,1.9-15.8,0.9c5.4,1.1,12.8,4.7,14.5,7.2
					C452.7,306.3,453.2,314.6,452.1,319.9z"/>
			</g>
			<g>
				<path fill="#FFFFFF" d="M464.5,325.5c0.4-1.9,1.8-4.6,2.5-5.1c0.7-0.5,3.8-0.8,5.7-0.4c-1.9-0.4-4.6-1.7-5.1-2.5
					c-0.6-0.9-0.8-3.8-0.4-5.7c-0.4,2-1.7,4.6-2.7,5.2c-1,0.7-3.8,0.7-5.6,0.3c1.9,0.4,4.6,1.7,5.1,2.5
					C464.7,320.6,464.9,323.6,464.5,325.5z"/>
			</g>
			<g>
				<path fill="#FFFFFF" d="M436.3,335.1c0.5-2.6,2.5-6.4,3.5-7.1c1-0.7,5.3-1.1,7.9-0.6c-2.6-0.5-6.3-2.3-7.1-3.5
					c-0.8-1.3-1.1-5.3-0.6-7.9c-0.5,2.7-2.3,6.3-3.7,7.2c-1.4,1-5.2,1-7.8,0.4c2.7,0.5,6.3,2.3,7.1,3.5
					C436.6,328.4,436.8,332.5,436.3,335.1z"/>
			</g>
		</g>
	</g>
	<g>
		<path fill="#C38728" d="M536.1,374.7c-8.3,16.9-32.3,22-53.6,11.6c-21.4-10.5-32-32.6-23.8-49.5c3.3-6.6,8.9-11.5,16-14.2
			c0.8-0.3,1.2-1.2,1-2c-1-4-0.6-8.5,1.4-12.6c4.4-9,15.2-12.9,23.9-8.5c8.6,4.3,12,15,7.6,24c0,0,0,0.1-0.1,0.1
			c1.2,0.5,2.5,1.1,3.7,1.7c1.2,0.6,2.4,1.3,3.6,1.9c0,0,0-0.1,0.1-0.1c4.4-9,15-12.8,23.7-8.7c8.8,4.2,12.4,15.1,7.9,24.1
			c-2,4.1-5.3,7.1-9.1,8.8c-0.8,0.4-1.2,1.2-1,2.1C539.7,360.6,539.4,368.1,536.1,374.7z"/>
		<path fill="#F9CA35" d="M503,379c-5.2,0.4-10.7-0.2-15.7-2.7c-5-2.4-8.9-6.4-11.7-10.7c-5.8-8.9-7.3-19.4-5-22
			c0.1-0.1,0.2-0.2,0.3-0.3c2.7-2,8,5.4,25.6,14c17.6,8.7,26.8,8.4,26.8,11.7c0,0.1,0,0.2,0,0.3C522.9,372.8,513.6,378.1,503,379z"
			/>
		
			<ellipse transform="matrix(0.4396 -0.8982 0.8982 0.4396 -8.2329 620.5151)" fill="#F9CA35" cx="493.2" cy="316.9" rx="11.2" ry="10.8"/>
		
			<ellipse transform="matrix(0.4396 -0.8982 0.8982 0.4396 -3.6992 664.5502)" fill="#F9CA35" cx="530.7" cy="335.2" rx="11.2" ry="10.8"/>
		
			<ellipse transform="matrix(0.4396 -0.8982 0.8982 0.4396 -31.7055 640.7656)" fill="#C38728" cx="497.7" cy="345.8" rx="3.4" ry="2.4"/>
		
			<ellipse transform="matrix(0.4396 -0.8982 0.8982 0.4396 -30.8055 649.5072)" fill="#C38728" cx="505.1" cy="349.4" rx="3.4" ry="2.4"/>
		<path fill="#F9CA35" d="M503,379c-5.2,0.4-10.7-0.2-15.7-2.7c-5-2.4-8.9-6.4-11.7-10.7c3.4-0.7,9.2,0.5,15.3,3.4
			C497,372,501.6,375.9,503,379z"/>
		<path fill="#F9CA35" d="M523.4,369.4c-4.9,2.4-16.9,0-29.6-6.2c-12.7-6.2-22-14.3-23.1-19.6c0.1-0.1,0.2-0.2,0.3-0.3
			c2.7-2,8,5.4,25.6,14c17.6,8.7,26.8,8.4,26.8,11.7C523.4,369.2,523.4,369.3,523.4,369.4z"/>
		
			<ellipse transform="matrix(0.4396 -0.8982 0.8982 0.4396 -8.2329 620.5151)" fill="#C38728" cx="493.2" cy="316.9" rx="5" ry="4.9"/>
		
			<ellipse transform="matrix(0.4396 -0.8982 0.8982 0.4396 -3.6992 664.5502)" fill="#C38728" cx="530.7" cy="335.2" rx="5" ry="4.9"/>
	</g>
	<path fill="#E6E6E7" d="M458.9,467.6l-48.2-95.9c0,0,6.6-25.4,48-15.7c41.5,9.7,82.4,36.4,121.1,46c55.4,13.7,108.7,7.1,108.7,7.1
		l-87.3,86.6L458.9,467.6z"/>
	<path fill="#E6E6E7" d="M653.1,664.7c-10.7-55.2-32.1-114.9-52-169l-142.3-28.1c-38.7,42.6-78.7,90.8-111.7,136.7
		c-70.3,97.8-49.4,138.8,3.2,175.6c39,27.3,186.5,56.4,233,46C646,811.8,671.4,759.3,653.1,664.7z"/>
	<g>
		<path fill="#009B6C" d="M602.4,693.3c-9.1,46-63.8,74-122.1,62.5c-58.4-11.5-98.3-58.2-89.2-104.2c3.6-18.1,14.2-33.5,29.4-44.7
			c1.7-1.3,2.3-3.6,1.2-5.5c-5-9.1-7-20.2-4.7-31.4c4.9-24.7,28.6-40.9,52.3-35.9c23.6,4.9,38.8,28.6,33.9,53.1c0,0.1,0,0.2-0.1,0.4
			c3.3,0.4,6.7,0.9,10.1,1.6c3.4,0.7,6.7,1.5,10,2.4c0-0.1,0-0.3,0.1-0.4c4.8-24.5,27.9-40.6,51.6-36.2
			c23.9,4.5,39.6,28.5,34.7,53.2c-2.2,11.2-8.2,20.6-16.3,27.2c-1.7,1.4-2.1,3.7-1,5.6C602,657,606,675.2,602.4,693.3z"/>
		<path fill="#070707" d="M525.2,724.8c-12.2,4.3-26,6.3-39.6,3.6c-13.6-2.7-25.5-9.7-35.2-18.4c-19.8-17.7-30.1-42.2-26.1-49.9
			c0.1-0.3,0.3-0.6,0.5-0.8c5.2-6.6,22.8,7.8,71,17.4c48.2,9.6,70,3,72.3,11.1c0.1,0.3,0.1,0.5,0.2,0.8
			C569.2,697.2,550.3,716,525.2,724.8z"/>
		
			<ellipse transform="matrix(0.1938 -0.981 0.981 0.1938 -198.0253 921.2007)" fill="#FFFFFF" cx="461.5" cy="581.1" rx="27.9" ry="27"/>
		
			<ellipse transform="matrix(0.1938 -0.981 0.981 0.1938 -135.2239 1038.1482)" fill="#FFFFFF" cx="564" cy="601.4" rx="27.9" ry="27"/>
		
			<ellipse transform="matrix(0.1938 -0.981 0.981 0.1938 -240.0213 1004.1335)" fill="#070707" cx="491" cy="648.1" rx="8.4" ry="5.9"/>
		
			<ellipse transform="matrix(0.1938 -0.981 0.981 0.1938 -227.5543 1027.3492)" fill="#070707" cx="511.3" cy="652.1" rx="8.4" ry="5.9"/>
		<path fill="#E24D4D" d="M525.2,724.8c-12.2,4.3-26,6.3-39.6,3.6c-13.6-2.7-25.5-9.7-35.2-18.4c7.6-4,22.6-4.8,39.1-1.5
			C506.1,711.8,519.7,718.3,525.2,724.8z"/>
		<path fill="#FFFFFF" d="M568.3,688.6c-10.3,8.8-40.9,10.8-75.5,4c-34.7-6.8-62.2-20.3-68.4-32.4c0.1-0.3,0.3-0.6,0.5-0.8
			c5.2-6.6,22.8,7.8,71,17.4c48.2,9.6,70,3,72.3,11.1C568.2,688,568.3,688.3,568.3,688.6z"/>
		
			<ellipse transform="matrix(0.1938 -0.981 0.981 0.1938 -198.0253 921.2007)" fill="#070707" cx="461.5" cy="581.1" rx="12.6" ry="12.2"/>
		
			<ellipse transform="matrix(0.1938 -0.981 0.981 0.1938 -135.2239 1038.1482)" fill="#070707" cx="564" cy="601.4" rx="12.6" ry="12.2"/>
	</g>
	<path fill="#744C29" d="M613.7,501.4c-0.6,2.8-3.9,4.6-7.4,3.9l-157.9-31.2c-3.5-0.7-5.9-3.6-5.3-6.4l0.8-4.2
		c0.6-2.8,3.9-4.6,7.4-3.9l157.9,31.2c3.5,0.7,5.9,3.6,5.3,6.4L613.7,501.4z"/>
</g>
<g>
	<g>
		<path fill="#E8AF2E" d="M828.7,605.6c9.3,37.2-13.3,75-50.5,84.4c-37.2,9.4-75-13.3-84.4-50.5c-9.4-37.2,13.3-75,50.5-84.4
			C781.6,545.7,819.4,568.3,828.7,605.6z"/>
		<path fill="#F9CA35" d="M816.5,608.6c7.7,30.5-10.9,61.5-41.4,69.1c-30.5,7.7-61.5-10.9-69.1-41.4c-7.7-30.5,10.9-61.5,41.4-69.1
			C777.9,559.6,808.9,578.1,816.5,608.6z"/>
	</g>
	<g>
		<g>
			<path fill="#FFFFFF" d="M707.5,637c-2.8-4.7-4.9-13.1-4.3-15.5c0.6-2.4,6.6-8.8,11.3-11.5c-4.7,2.8-12.7,5-15.5,4.3
				c-3-0.8-8.8-6.6-11.6-11.3c2.8,4.8,5,12.7,4.2,15.9c-0.9,3.4-6.6,8.5-11.2,11.2c4.7-2.8,12.7-5,15.5-4.3
				C698.8,626.5,704.7,632.3,707.5,637z"/>
		</g>
		<g>
			<path fill="#FFFFFF" d="M720.4,632.9c-1-1.7-1.8-4.7-1.5-5.5c0.2-0.9,2.3-3.1,4-4.1c-1.7,1-4.5,1.8-5.5,1.5
				c-1.1-0.3-3.1-2.3-4.1-4c1,1.7,1.8,4.5,1.5,5.7c-0.3,1.2-2.3,3-4,4c1.7-1,4.5-1.8,5.5-1.5C717.3,629.2,719.4,631.3,720.4,632.9z"
				/>
		</g>
		<g>
			<path fill="#FFFFFF" d="M705.8,658.9c-1.4-2.3-2.4-6.5-2.1-7.7c0.3-1.2,3.2-4.3,5.6-5.7c-2.3,1.4-6.3,2.5-7.7,2.1
				c-1.5-0.4-4.3-3.2-5.7-5.6c1.4,2.4,2.5,6.3,2.1,7.9c-0.4,1.7-3.2,4.2-5.5,5.5c2.3-1.4,6.3-2.5,7.7-2.1
				C701.5,653.7,704.4,656.6,705.8,658.9z"/>
		</g>
	</g>
</g>
<g>
	<path fill="#C38728" d="M806.6,622c5.1,18.1-9.4,37.9-32.3,44.4c-22.9,6.4-45.6-3-50.7-21.1c-2-7.1-1-14.5,2.4-21.3
		c0.4-0.8,0.1-1.7-0.6-2.2c-3.4-2.4-6.1-5.9-7.4-10.3c-2.7-9.7,2.8-19.7,12.2-22.3c9.3-2.5,19,3.2,21.7,12.8c0,0,0,0.1,0,0.1
		c1.3-0.5,2.6-0.9,3.9-1.2c1.3-0.4,2.7-0.7,4-1c0,0,0-0.1,0-0.1c-2.7-9.6,2.6-19.5,11.9-22.2c9.3-2.7,19.3,3,22,12.7
		c1.2,4.4,0.8,8.8-0.9,12.7c-0.4,0.8-0.1,1.7,0.7,2.2C799.9,609.1,804.6,614.9,806.6,622z"/>
	<path fill="#F9CA35" d="M784.8,647.2c-3.6,3.8-8.1,6.9-13.5,8.4c-5.3,1.5-10.9,1.1-15.9-0.2c-10.3-2.7-18.4-9.6-18.3-13.1
		c0-0.1,0-0.3,0-0.4c0.6-3.3,9.6-1.3,28.5-6.6c18.9-5.3,25.5-11.6,27.8-9.1c0.1,0.1,0.1,0.2,0.2,0.3
		C795.5,629.4,792.1,639.5,784.8,647.2z"/>
	
		<ellipse transform="matrix(0.9628 -0.2703 0.2703 0.9628 -136.7896 221.5746)" fill="#F9CA35" cx="736" cy="607.4" rx="10.8" ry="11.2"/>
	
		<ellipse transform="matrix(0.9628 -0.2703 0.2703 0.9628 -132.2353 232.0365)" fill="#F9CA35" cx="776.3" cy="596.1" rx="10.8" ry="11.2"/>
	
		<ellipse transform="matrix(0.9628 -0.2703 0.2703 0.9628 -140.9728 228.3827)" fill="#C38728" cx="758.7" cy="626" rx="2.4" ry="3.4"/>
	
		<ellipse transform="matrix(0.9628 -0.2703 0.2703 0.9628 -140.0687 230.4595)" fill="#C38728" cx="766.7" cy="623.8" rx="2.4" ry="3.4"/>
	<path fill="#F9CA35" d="M784.8,647.2c-3.6,3.8-8.1,6.9-13.5,8.4c-5.3,1.5-10.9,1.1-15.9-0.2c2-2.8,7.2-5.8,13.7-7.6
		C775.6,646,781.6,645.8,784.8,647.2z"/>
	<path fill="#F9CA35" d="M793.6,626.5c-2.1,5-12.7,11.3-26.2,15.1c-13.6,3.8-25.9,4-30.3,0.8c0-0.1,0-0.3,0-0.4
		c0.6-3.3,9.6-1.3,28.5-6.6c18.9-5.3,25.5-11.6,27.8-9.1C793.4,626.3,793.5,626.4,793.6,626.5z"/>
	
		<ellipse transform="matrix(0.9628 -0.2703 0.2703 0.9628 -136.7896 221.5746)" fill="#C38728" cx="736" cy="607.4" rx="4.9" ry="5"/>
	
		<ellipse transform="matrix(0.9628 -0.2703 0.2703 0.9628 -132.2353 232.0365)" fill="#C38728" cx="776.3" cy="596.1" rx="4.9" ry="5"/>
</g>
<g>
	<g>
		<path fill="#E8AF2E" d="M777.6,835.8c-11.7,22.3-39.2,30.9-61.6,19.2c-22.3-11.7-30.9-39.3-19.2-61.5
			c11.7-22.3,39.3-30.9,61.5-19.2C780.7,785.9,789.3,813.5,777.6,835.8z"/>
		<path fill="#F9CA35" d="M770.3,832c-9.6,18.3-32.2,25.3-50.4,15.7c-18.3-9.6-25.3-32.2-15.7-50.4c9.6-18.3,32.2-25.3,50.4-15.7
			C772.8,791.1,779.9,813.7,770.3,832z"/>
	</g>
	<g>
		<g>
			<path fill="#FFFFFF" d="M704.5,798.2c0.7-3.5,3.3-8.6,4.7-9.5c1.4-0.9,7-1.4,10.5-0.7c-3.5-0.7-8.4-3.1-9.5-4.7
				c-1.1-1.7-1.4-7-0.7-10.6c-0.7,3.6-3.1,8.4-4.9,9.6c-1.9,1.3-6.9,1.3-10.3,0.6c3.5,0.7,8.4,3.1,9.5,4.7
				C704.9,789.3,705.2,794.7,704.5,798.2z"/>
		</g>
		<g>
			<path fill="#FFFFFF" d="M712.7,801.9c0.2-1.3,1.2-3,1.7-3.4c0.5-0.3,2.5-0.5,3.8-0.3c-1.3-0.2-3-1.1-3.4-1.7
				c-0.4-0.6-0.5-2.5-0.3-3.8c-0.3,1.3-1.1,3-1.7,3.4c-0.7,0.4-2.5,0.5-3.7,0.2c1.3,0.2,3,1.1,3.4,1.7
				C712.8,798.7,712.9,800.6,712.7,801.9z"/>
		</g>
		<g>
			<path fill="#FFFFFF" d="M694.2,808.2c0.3-1.7,1.6-4.2,2.3-4.7c0.7-0.5,3.5-0.7,5.2-0.4c-1.7-0.3-4.2-1.5-4.7-2.3
				c-0.6-0.8-0.7-3.5-0.4-5.2c-0.4,1.8-1.5,4.1-2.4,4.8c-0.9,0.6-3.4,0.6-5.1,0.3c1.7,0.3,4.2,1.5,4.7,2.3
				C694.3,803.7,694.5,806.4,694.2,808.2z"/>
		</g>
	</g>
</g>
<g>
	<path fill="#C38728" d="M759.6,834.2c-5.4,11.1-21.2,14.5-35.2,7.6c-14-6.9-21-21.4-15.6-32.4c2.1-4.4,5.9-7.5,10.5-9.3
		c0.5-0.2,0.8-0.8,0.7-1.3c-0.7-2.7-0.4-5.6,0.9-8.3c2.9-5.9,10-8.4,15.7-5.6c5.6,2.8,7.9,9.9,5,15.7c0,0,0,0.1,0,0.1
		c0.8,0.3,1.6,0.7,2.4,1.1c0.8,0.4,1.6,0.8,2.4,1.3c0,0,0-0.1,0-0.1c2.9-5.9,9.8-8.4,15.5-5.7c5.8,2.7,8.1,9.9,5.2,15.8
		c-1.3,2.7-3.5,4.7-6,5.8c-0.5,0.2-0.8,0.8-0.6,1.3C762,824.9,761.7,829.8,759.6,834.2z"/>
	<path fill="#F9CA35" d="M737.9,836.9c-3.4,0.3-7-0.2-10.3-1.8c-3.3-1.6-5.8-4.2-7.7-7c-3.8-5.8-4.8-12.7-3.2-14.4
		c0.1-0.1,0.1-0.1,0.2-0.2c1.8-1.3,5.3,3.5,16.8,9.2c11.6,5.7,17.6,5.5,17.6,7.7c0,0.1,0,0.1,0,0.2
		C750.9,832.9,744.9,836.4,737.9,836.9z"/>
	
		<ellipse transform="matrix(0.4396 -0.8982 0.8982 0.4396 -305.247 1103.14)" fill="#F9CA35" cx="731.5" cy="796.2" rx="7.3" ry="7.1"/>
	
		<ellipse transform="matrix(0.4396 -0.8982 0.8982 0.4396 -302.274 1132.017)" fill="#F9CA35" cx="756.1" cy="808.3" rx="7.3" ry="7.1"/>
	
		<ellipse transform="matrix(0.4396 -0.8982 0.8982 0.4396 -320.6397 1116.4197)" fill="#C38728" cx="734.4" cy="815.2" rx="2.2" ry="1.5"/>
	
		<ellipse transform="matrix(0.4396 -0.8982 0.8982 0.4396 -320.0495 1122.1521)" fill="#C38728" cx="739.3" cy="817.6" rx="2.2" ry="1.5"/>
	<path fill="#F9CA35" d="M737.9,836.9c-3.4,0.3-7-0.2-10.3-1.8c-3.3-1.6-5.8-4.2-7.7-7c2.2-0.5,6.1,0.3,10,2.3
		C734,832.3,737,834.9,737.9,836.9z"/>
	<path fill="#F9CA35" d="M751.3,830.7c-3.2,1.5-11.1,0-19.4-4.1c-8.3-4.1-14.4-9.4-15.1-12.8c0.1-0.1,0.1-0.1,0.2-0.2
		c1.8-1.3,5.3,3.5,16.8,9.2c11.6,5.7,17.6,5.5,17.6,7.7C751.3,830.5,751.3,830.6,751.3,830.7z"/>
	
		<ellipse transform="matrix(0.4396 -0.8982 0.8982 0.4396 -305.247 1103.14)" fill="#C38728" cx="731.5" cy="796.2" rx="3.3" ry="3.2"/>
	
		<ellipse transform="matrix(0.4396 -0.8982 0.8982 0.4396 -302.274 1132.017)" fill="#C38728" cx="756.1" cy="808.3" rx="3.3" ry="3.2"/>
</g>
<g>
	<g>
		<path fill="#E8AF2E" d="M957.1,918.7c-7,32.8-39.2,53.8-72.1,46.8c-32.8-7-53.8-39.2-46.8-72.1c7-32.8,39.2-53.8,72.1-46.8
			C943.1,853.6,964.1,885.9,957.1,918.7z"/>
		<path fill="#F9CA35" d="M946.3,916.4c-5.7,26.9-32.2,44.1-59.1,38.4c-26.9-5.7-44.1-32.2-38.4-59.1c5.7-26.9,32.2-44.1,59.1-38.4
			C934.9,863.1,952.1,889.5,946.3,916.4z"/>
	</g>
	<g>
		<g>
			<path fill="#FFFFFF" d="M849.7,896.8c-0.4-4.8,1.2-12.2,2.6-13.9c1.4-1.7,8.5-4.4,13.3-4.7c-4.8,0.4-11.9-0.9-13.9-2.6
				c-2-1.7-4.4-8.5-4.7-13.3c0.4,4.9-0.9,11.9-2.8,14.1c-2,2.3-8.4,4.1-13.1,4.5c4.8-0.4,11.9,1,13.9,2.6
				C847,885.2,849.4,892.1,849.7,896.8z"/>
		</g>
		<g>
			<path fill="#FFFFFF" d="M861.5,898.6c-0.1-1.7,0.4-4.3,0.9-4.9c0.5-0.6,3-1.6,4.7-1.7c-1.7,0.1-4.2-0.3-4.9-0.9
				c-0.7-0.6-1.6-3-1.7-4.7c0.1,1.7-0.3,4.2-1,5c-0.7,0.8-3,1.5-4.6,1.6c1.7-0.1,4.3,0.3,4.9,0.9
				C860.5,894.4,861.3,896.9,861.5,898.6z"/>
		</g>
		<g>
			<path fill="#FFFFFF" d="M840,913.3c-0.2-2.4,0.6-6,1.3-6.8c0.7-0.8,4.2-2.2,6.6-2.3c-2.3,0.2-5.9-0.5-6.8-1.3
				c-1-0.9-2.2-4.2-2.3-6.6c0.2,2.4-0.5,5.9-1.4,7c-1,1.1-4.2,2-6.5,2.2c2.4-0.2,5.9,0.5,6.8,1.3C838.7,907.6,839.8,911,840,913.3z"
				/>
		</g>
	</g>
</g>
<g>
	<path fill="#C38728" d="M933.4,923.1c-3,16.1-22,26.2-42.4,22.4c-20.5-3.8-34.7-19.9-31.7-36c1.2-6.4,4.8-11.8,10.1-15.8
		c0.6-0.5,0.8-1.3,0.4-1.9c-1.8-3.2-2.5-7-1.8-10.9c1.6-8.6,9.8-14.4,18.1-12.8c8.3,1.6,13.7,9.8,12.1,18.4c0,0,0,0.1,0,0.1
		c1.2,0.1,2.3,0.3,3.5,0.5c1.2,0.2,2.4,0.5,3.5,0.8c0,0,0-0.1,0-0.1c1.6-8.6,9.6-14.3,17.9-12.9c8.4,1.5,14,9.8,12.4,18.4
		c-0.7,3.9-2.8,7.3-5.6,9.6c-0.6,0.5-0.7,1.3-0.3,2C933.1,910.4,934.6,916.8,933.4,923.1z"/>
	<path fill="#F9CA35" d="M906.6,934.5c-4.3,1.6-9,2.3-13.8,1.4c-4.8-0.9-9-3.3-12.4-6.3c-7-6.1-10.7-14.6-9.4-17.3
		c0.1-0.1,0.1-0.2,0.2-0.3c1.8-2.3,8,2.6,24.9,5.7c16.9,3.1,24.5,0.7,25.3,3.5c0,0.1,0,0.2,0.1,0.3
		C921.8,924.6,915.3,931.3,906.6,934.5z"/>
	
		<ellipse transform="matrix(0.1805 -0.9836 0.9836 0.1805 -145.9061 1593.9597)" fill="#F9CA35" cx="883.6" cy="884.5" rx="9.8" ry="9.4"/>
	
		<ellipse transform="matrix(0.1805 -0.9836 0.9836 0.1805 -122.9256 1634.7388)" fill="#F9CA35" cx="919.5" cy="891.1" rx="9.8" ry="9.4"/>
	
		<ellipse transform="matrix(0.1805 -0.9836 0.9836 0.1805 -160.1163 1623.4994)" fill="#C38728" cx="894.2" cy="907.8" rx="2.9" ry="2.1"/>
	
		<ellipse transform="matrix(0.1805 -0.9836 0.9836 0.1805 -155.5544 1631.5946)" fill="#C38728" cx="901.3" cy="909.1" rx="2.9" ry="2.1"/>
	<path fill="#F9CA35" d="M906.6,934.5c-4.3,1.6-9,2.3-13.8,1.4c-4.8-0.9-9-3.3-12.4-6.3c2.7-1.4,7.9-1.8,13.7-0.7
		C899.8,930,904.6,932.2,906.6,934.5z"/>
	<path fill="#F9CA35" d="M921.4,921.6c-3.6,3.1-14.3,4-26.4,1.7c-12.2-2.2-21.9-6.8-24.1-11c0.1-0.1,0.1-0.2,0.2-0.3
		c1.8-2.3,8,2.6,24.9,5.7c16.9,3.1,24.5,0.7,25.3,3.5C921.4,921.4,921.4,921.5,921.4,921.6z"/>
	
		<ellipse transform="matrix(0.1805 -0.9836 0.9836 0.1805 -145.9061 1593.9597)" fill="#C38728" cx="883.6" cy="884.5" rx="4.4" ry="4.3"/>
	
		<ellipse transform="matrix(0.1805 -0.9836 0.9836 0.1805 -122.9256 1634.7388)" fill="#C38728" cx="919.5" cy="891.1" rx="4.4" ry="4.3"/>
</g>
</svg>
