<?xml version="1.0" encoding="utf-8"?>
<!-- Generator: Adobe Illustrator 26.2.1, SVG Export Plug-In . SVG Version: 6.00 Build 0)  -->
<svg version="1.1" id="Layer_1" xmlns="http://www.w3.org/2000/svg" xmlns:xlink="http://www.w3.org/1999/xlink" x="0px" y="0px"
	 width="250px" height="250px" viewBox="0 0 250 250" enable-background="new 0 0 250 250" xml:space="preserve">
<path fill="#0052FF" d="M40,0h170c22.1,0,40,17.9,40,40v170c0,22.1-17.9,40-40,40H40c-22.1,0-40-17.9-40-40V40C0,17.9,17.9,0,40,0z"
	/>
<path fill-rule="evenodd" clip-rule="evenodd" fill="#FFFFFF" d="M124.9,200c41.4,0,75-33.6,75-75c0-41.4-33.6-75-75-75
	c-39.3,0-71.5,30.2-74.7,68.7h111.3v12.5H50.1C53.3,169.7,85.5,200,124.9,200z"/>
</svg>
