<?xml version="1.0" encoding="utf-8"?>
<!-- Generator: Adobe Illustrator 26.2.1, SVG Export Plug-In . SVG Version: 6.00 Build 0)  -->
<svg version="1.1" id="Layer_1" xmlns="http://www.w3.org/2000/svg" xmlns:xlink="http://www.w3.org/1999/xlink" x="0px" y="0px"
	 width="250px" height="250px" viewBox="0 0 250 250" enable-background="new 0 0 250 250" xml:space="preserve">
<path fill="#070707" d="M40,0h170c22.1,0,40,17.9,40,40v170c0,22.1-17.9,40-40,40H40c-22.1,0-40-17.9-40-40V40C0,17.9,17.9,0,40,0z"
	/>
<g id="triangle-group_00000018934682779274429110000000712611971616245123_">
	<polygon fill="#FFFFFF" points="84.1,160.4 67,190 183,190 165.9,160.4 	"/>
	<polygon fill="#FFFFFF" points="125,89.6 108,60 50,160.4 84.1,160.4 	"/>
	<polygon fill="#FFFFFF" points="165.9,160.4 200,160.4 142,60 125,89.6 	"/>
</g>
<circle id="circle-shape_00000030455929162684933260000012980630127864319418_" fill="#FFFFFF" cx="125" cy="136.9" r="18.4"/>
</svg>
